# 3ds Max Wavefront OBJ Exporter v0.97b - (c)2007 guruware
# File Created: 29.11.2018 17:07:00

mtllib pirate_arm.mtl

#
# object Box01
#

v  -0.9413 0.4908 2.9107
v  0.6163 -0.6580 1.6385
v  0.8895 1.2342 0.2287
v  -0.7240 2.3905 1.5654
v  -1.4134 0.2042 2.1453
v  -1.2313 1.8392 0.9913
v  0.0518 0.9198 -0.0717
v  -0.1853 -0.7014 1.1423
v  -0.1700 2.5878 1.2169
v  0.8740 1.5073 0.1899
v  0.6445 2.0835 -0.6838
v  -0.3863 3.1891 0.3729
v  -0.9359 1.8817 0.7958
v  -1.1281 2.3881 0.1074
v  -0.3338 1.5309 -0.6781
v  -0.1378 1.0433 0.0367
v  0.0271 2.7889 -0.4802
v  0.6086 1.8634 -0.6763
v  0.2416 1.8106 -1.7699
v  -0.3309 2.7628 -1.5963
v  -0.7476 2.1244 -0.3162
v  -1.0607 2.1193 -1.2472
v  -0.6029 1.3708 -1.3673
v  -0.2861 1.3970 -0.4513
v  0.9872 0.9600 0.2177
v  1.3948 0.0319 -1.1181
v  1.3383 0.5972 -1.5398
v  0.8937 1.5958 -0.2450
v  0.1703 0.7060 -0.0581
v  0.0937 1.2500 -0.4649
v  0.4507 0.4564 -1.5243
v  0.4984 -0.0274 -1.1475
v  0.9396 0.2156 0.8189
v  1.3323 -0.7402 -0.3575
v  1.3852 -0.2623 -0.7617
v  0.9899 0.7590 0.3784
v  0.0870 0.0560 0.4469
v  0.1310 0.5217 0.0672
v  0.4450 -0.2862 -0.8405
v  0.3984 -0.6978 -0.4869
v  0.6184 -0.7171 1.6397
v  1.0245 -1.7861 0.4924
v  1.2364 -1.2203 -0.0247
v  0.8634 -0.0759 1.0872
v  -0.1464 -0.7493 1.1685
v  0.0625 -0.1901 0.6953
v  0.3583 -1.1160 -0.1863
v  0.1735 -1.6135 0.2605
v  1.0741 -1.9825 0.1190
v  0.4945 -2.7102 -0.9672
v  0.5868 -2.3246 -1.4022
v  1.2197 -1.5156 -0.3873
v  0.4510 -1.7257 0.1346
v  0.5846 -1.3000 -0.3199
v  0.0445 -1.9959 -1.1738
v  -0.0442 -2.3518 -0.7786
v  1.2994 -1.0562 -0.8474
v  0.5164 -1.9196 -2.0831
v  0.5408 -1.6186 -2.3581
v  1.3332 -0.6496 -1.1886
v  0.5318 -0.8489 -0.7140
v  0.5612 -0.4898 -1.0198
v  -0.0915 -1.2864 -1.9845
v  -0.1118 -1.5573 -1.7314
v  1.3217 -0.1727 -1.5850
v  0.6974 -0.9918 -2.6177
v  0.6791 -0.6006 -2.9054
v  1.2731 0.3187 -1.9217
v  0.5472 -0.0697 -1.3753
v  0.5018 0.3588 -1.6809
v  0.0079 -0.3931 -2.5048
v  0.0304 -0.7368 -2.2379
# 72 vertices

vn 0.7319 0.3360 0.5928
vn -0.7320 -0.3365 -0.5924
vn -0.7320 -0.3366 -0.5924
vn -0.8459 0.3678 0.3862
vn -0.8433 0.3715 0.3884
vn -0.8442 0.3703 0.3877
vn -0.8470 0.3663 0.3853
vn -0.0335 0.7355 -0.6767
vn -0.0335 0.7355 -0.6766
vn 0.4572 -0.5744 -0.6790
vn 0.4534 -0.5737 -0.6822
vn 0.4546 -0.5739 -0.6812
vn 0.4588 -0.5746 -0.6777
vn -0.2438 -0.8493 0.4683
vn 0.7982 0.5714 0.1905
vn 0.7877 0.5887 0.1814
vn 0.7931 0.5800 0.1860
vn 0.8034 0.5626 0.1950
vn -0.7973 -0.5731 -0.1893
vn -0.8015 -0.5661 -0.1927
vn -0.7939 -0.5788 -0.1866
vn -0.7895 -0.5858 -0.1831
vn -0.7084 0.4693 0.5272
vn -0.7050 0.4797 0.5224
vn -0.7092 0.4669 0.5283
vn -0.7129 0.4549 0.5337
vn -0.2725 0.5089 -0.8165
vn -0.2904 0.5057 -0.8124
vn -0.2798 0.5077 -0.8149
vn -0.2588 0.5113 -0.8195
vn 0.4044 -0.7064 -0.5809
vn 0.4114 -0.7074 -0.5747
vn 0.4029 -0.7062 -0.5822
vn 0.3948 -0.7050 -0.5892
vn 0.1414 -0.5958 0.7906
vn 0.1347 -0.6112 0.7799
vn 0.1388 -0.6019 0.7864
vn 0.1467 -0.5835 0.7987
vn 0.7922 0.5424 -0.2797
vn 0.7818 0.5524 -0.2891
vn 0.7928 0.5418 -0.2792
vn 0.8027 0.5318 -0.2699
vn -0.7919 -0.5426 0.2800
vn -0.8008 -0.5335 0.2723
vn -0.7930 -0.5415 0.2791
vn -0.7839 -0.5506 0.2869
vn -0.6076 0.7716 0.1881
vn -0.6027 0.7785 0.1751
vn -0.6073 0.7720 0.1874
vn -0.6127 0.7641 0.2019
vn -0.3865 -0.0757 -0.9192
vn -0.3982 -0.0726 -0.9144
vn -0.3860 -0.0758 -0.9194
vn -0.3723 -0.0794 -0.9247
vn 0.4270 -0.8974 -0.1106
vn 0.4389 -0.8925 -0.1042
vn 0.4275 -0.8973 -0.1103
vn 0.4141 -0.9026 -0.1174
vn 0.2500 -0.0359 0.9676
vn 0.2474 -0.0496 0.9676
vn 0.2502 -0.0350 0.9676
vn 0.2532 -0.0190 0.9672
vn 0.9613 0.2350 0.1435
vn 0.9665 0.2085 0.1500
vn 0.9646 0.2184 0.1476
vn 0.9594 0.2439 0.1413
vn -0.9616 -0.2335 -0.1441
vn -0.9599 -0.2417 -0.1424
vn -0.9643 -0.2203 -0.1469
vn -0.9661 -0.2112 -0.1488
vn -0.4183 0.4984 0.7593
vn -0.4220 0.4921 0.7614
vn -0.4172 0.5004 0.7587
vn -0.4131 0.5073 0.7563
vn -0.1484 0.7635 -0.6286
vn -0.1320 0.7625 -0.6334
vn -0.1399 0.7630 -0.6311
vn -0.1582 0.7639 -0.6256
vn 0.0721 -0.5982 -0.7981
vn 0.0655 -0.5924 -0.8030
vn 0.0754 -0.6010 -0.7957
vn 0.0826 -0.6073 -0.7902
vn 0.0436 -0.8194 0.5715
vn 0.0562 -0.8118 0.5812
vn 0.0501 -0.8155 0.5765
vn 0.0360 -0.8239 0.5655
vn 0.9650 0.1037 0.2407
vn 0.9652 0.0983 0.2423
vn 0.9651 0.1002 0.2418
vn 0.9650 0.1054 0.2401
vn -0.9650 -0.1033 -0.2409
vn -0.9650 -0.1049 -0.2404
vn -0.9651 -0.1006 -0.2416
vn -0.9652 -0.0988 -0.2421
vn -0.4131 0.5971 0.6876
vn -0.4140 0.5960 0.6881
vn -0.4126 0.5978 0.6873
vn -0.4117 0.5990 0.6868
vn 0.0331 0.7514 -0.6591
vn 0.0363 0.7506 -0.6598
vn 0.0344 0.7510 -0.6594
vn 0.0308 0.7519 -0.6585
vn 0.0769 -0.6508 -0.7553
vn 0.0755 -0.6489 -0.7572
vn 0.0781 -0.6526 -0.7537
vn 0.0796 -0.6547 -0.7517
vn -0.1175 -0.7907 0.6008
vn -0.1153 -0.7894 0.6029
vn -0.1166 -0.7902 0.6017
vn -0.1191 -0.7916 0.5993
vn 0.9327 -0.0401 0.3584
vn 0.9346 -0.0257 0.3548
vn 0.9338 -0.0321 0.3564
vn 0.9319 -0.0459 0.3599
vn -0.9329 0.0392 -0.3581
vn -0.9322 0.0442 -0.3592
vn -0.9336 0.0334 -0.3568
vn -0.9342 0.0278 -0.3556
vn -0.4023 0.6780 0.6152
vn -0.3977 0.6814 0.6144
vn -0.4029 0.6775 0.6153
vn -0.4080 0.6738 0.6161
vn 0.2189 0.7114 -0.6679
vn 0.2077 0.7156 -0.6669
vn 0.2133 0.7135 -0.6674
vn 0.2260 0.7086 -0.6684
vn 0.0569 -0.6824 -0.7288
vn 0.0588 -0.6853 -0.7258
vn 0.0564 -0.6816 -0.7296
vn 0.0543 -0.6783 -0.7328
vn -0.3177 -0.7430 0.5891
vn -0.3260 -0.7465 0.5801
vn -0.3218 -0.7447 0.5847
vn -0.3124 -0.7406 0.5949
vn 0.8741 -0.4519 -0.1784
vn 0.8857 -0.4244 -0.1883
vn 0.8811 -0.4354 -0.1844
vn 0.8700 -0.4610 -0.1750
vn -0.8742 0.4516 0.1783
vn -0.8703 0.4602 0.1754
vn -0.8802 0.4380 0.1830
vn -0.8845 0.4277 0.1865
vn 0.2923 0.6567 0.6952
vn 0.2968 0.6579 0.6921
vn 0.2875 0.6554 0.6984
vn 0.1638 0.7140 -0.6807
vn 0.1548 0.7232 -0.6730
vn 0.1584 0.7196 -0.6761
vn 0.1681 0.7094 -0.6845
vn -0.5788 -0.5418 -0.6094
vn -0.5763 -0.5470 -0.6072
vn -0.5795 -0.5404 -0.6100
vn -0.5821 -0.5349 -0.6124
vn -0.2666 -0.7239 0.6363
vn -0.2813 -0.7210 0.6332
vn -0.2754 -0.7222 0.6345
vn -0.2593 -0.7252 0.6378
vn 0.8845 -0.3425 -0.3167
vn 0.8817 -0.3552 -0.3105
vn 0.8824 -0.3523 -0.3120
vn 0.8850 -0.3402 -0.3178
vn -0.8844 0.3442 0.3153
vn -0.8849 0.3418 0.3164
vn -0.8823 0.3530 0.3113
vn -0.8816 0.3559 0.3099
vn 0.2891 0.6030 0.7435
vn 0.2875 0.6015 0.7454
vn 0.2905 0.6043 0.7419
vn 0.2922 0.6060 0.7399
vn 0.0183 0.7645 -0.6444
vn 0.0195 0.7634 -0.6457
vn 0.0190 0.7638 -0.6452
vn 0.0177 0.7651 -0.6437
vn -0.6231 -0.5019 -0.5998
vn -0.6243 -0.4987 -0.6013
vn -0.6214 -0.5069 -0.5975
vn -0.6201 -0.5104 -0.5958
vn -0.1069 -0.7826 0.6133
vn -0.1049 -0.7828 0.6134
vn -0.1057 -0.7827 0.6133
vn -0.1080 -0.7825 0.6132
vn 0.9060 -0.1847 -0.3810
vn 0.9027 -0.2269 -0.3657
vn 0.9038 -0.2142 -0.3704
vn 0.9065 -0.1739 -0.3847
vn -0.9062 0.1874 0.3790
vn -0.9069 0.1767 0.3824
vn -0.9040 0.2129 0.3707
vn -0.9027 0.2254 0.3665
vn 0.2771 0.5674 0.7755
vn 0.2729 0.5620 0.7808
vn 0.2796 0.5707 0.7721
vn 0.2841 0.5765 0.7662
vn -0.1472 0.7701 -0.6207
vn -0.1397 0.7641 -0.6298
vn -0.1434 0.7671 -0.6253
vn -0.1518 0.7736 -0.6152
vn -0.5597 -0.5152 -0.6491
vn -0.5646 -0.5060 -0.6520
vn -0.5543 -0.5250 -0.6459
vn -0.5488 -0.5348 -0.6425
vn 0.0428 -0.7998 0.5988
vn 0.0560 -0.7985 0.5994
vn 0.0493 -0.7992 0.5991
vn 0.0346 -0.8005 0.5983
# 205 vertex normals

vt 1.0000 0.0000 0.0000
vt 1.0000 1.0000 0.0000
vt 0.0000 1.0000 0.0000
vt 0.0000 0.0000 0.0000
# 4 texture coords

o Box01
g Box01
usemtl pirate_skeleton__9___Default
s 1
f 1/1/1 2/2/1 3/3/1 
f 3/3/1 4/4/1 1/1/1 
f 5/4/2 6/1/3 7/2/2 
f 7/2/2 8/3/2 5/4/2 
f 1/4/4 4/1/5 6/2/6 
f 6/2/6 5/3/7 1/4/4 
f 4/4/8 3/1/9 7/2/9 
f 7/2/9 6/3/8 4/4/8 
f 3/4/10 2/1/11 8/2/12 
f 8/2/12 7/3/13 3/4/10 
f 2/4/14 1/1/14 5/2/14 
f 5/2/14 8/3/14 2/4/14 
f 9/1/15 10/2/16 11/3/17 
f 11/3/17 12/4/18 9/1/15 
f 13/4/19 14/1/20 15/2/21 
f 15/2/21 16/3/22 13/4/19 
f 9/4/23 12/1/24 14/2/25 
f 14/2/25 13/3/26 9/4/23 
f 12/4/27 11/1/28 15/2/29 
f 15/2/29 14/3/30 12/4/27 
f 11/4/31 10/1/32 16/2/33 
f 16/2/33 15/3/34 11/4/31 
f 10/4/35 9/1/36 13/2/37 
f 13/2/37 16/3/38 10/4/35 
f 17/1/39 18/2/40 19/3/41 
f 19/3/41 20/4/42 17/1/39 
f 21/4/43 22/1/44 23/2/45 
f 23/2/45 24/3/46 21/4/43 
f 17/4/47 20/1/48 22/2/49 
f 22/2/49 21/3/50 17/4/47 
f 20/4/51 19/1/52 23/2/53 
f 23/2/53 22/3/54 20/4/51 
f 19/4/55 18/1/56 24/2/57 
f 24/2/57 23/3/58 19/4/55 
f 18/4/59 17/1/60 21/2/61 
f 21/2/61 24/3/62 18/4/59 
f 25/1/63 26/2/64 27/3/65 
f 27/3/65 28/4/66 25/1/63 
f 29/4/67 30/1/68 31/2/69 
f 31/2/69 32/3/70 29/4/67 
f 25/4/71 28/1/72 30/2/73 
f 30/2/73 29/3/74 25/4/71 
f 28/4/75 27/1/76 31/2/77 
f 31/2/77 30/3/78 28/4/75 
f 27/4/79 26/1/80 32/2/81 
f 32/2/81 31/3/82 27/4/79 
f 26/4/83 25/1/84 29/2/85 
f 29/2/85 32/3/86 26/4/83 
f 33/1/87 34/2/88 35/3/89 
f 35/3/89 36/4/90 33/1/87 
f 37/4/91 38/1/92 39/2/93 
f 39/2/93 40/3/94 37/4/91 
f 33/4/95 36/1/96 38/2/97 
f 38/2/97 37/3/98 33/4/95 
f 36/4/99 35/1/100 39/2/101 
f 39/2/101 38/3/102 36/4/99 
f 35/4/103 34/1/104 40/2/105 
f 40/2/105 39/3/106 35/4/103 
f 34/4/107 33/1/108 37/2/109 
f 37/2/109 40/3/110 34/4/107 
f 41/1/111 42/2/112 43/3/113 
f 43/3/113 44/4/114 41/1/111 
f 45/4/115 46/1/116 47/2/117 
f 47/2/117 48/3/118 45/4/115 
f 41/4/119 44/1/120 46/2/121 
f 46/2/121 45/3/122 41/4/119 
f 44/4/123 43/1/124 47/2/125 
f 47/2/125 46/3/126 44/4/123 
f 43/4/127 42/1/128 48/2/129 
f 48/2/129 47/3/130 43/4/127 
f 42/4/131 41/1/132 45/2/133 
f 45/2/133 48/3/134 42/4/131 
f 49/1/135 50/2/136 51/3/137 
f 51/3/137 52/4/138 49/1/135 
f 53/4/139 54/1/140 55/2/141 
f 55/2/141 56/3/142 53/4/139 
f 49/4/143 52/1/144 54/2/143 
f 54/2/143 53/3/145 49/4/143 
f 52/4/146 51/1/147 55/2/148 
f 55/2/148 54/3/149 52/4/146 
f 51/4/150 50/1/151 56/2/152 
f 56/2/152 55/3/153 51/4/150 
f 50/4/154 49/1/155 53/2/156 
f 53/2/156 56/3/157 50/4/154 
f 57/1/158 58/2/159 59/3/160 
f 59/3/160 60/4/161 57/1/158 
f 61/4/162 62/1/163 63/2/164 
f 63/2/164 64/3/165 61/4/162 
f 57/4/166 60/1/167 62/2/168 
f 62/2/168 61/3/169 57/4/166 
f 60/4/170 59/1/171 63/2/172 
f 63/2/172 62/3/173 60/4/170 
f 59/4/174 58/1/175 64/2/176 
f 64/2/176 63/3/177 59/4/174 
f 58/4/178 57/1/179 61/2/180 
f 61/2/180 64/3/181 58/4/178 
f 65/1/182 66/2/183 67/3/184 
f 67/3/184 68/4/185 65/1/182 
f 69/4/186 70/1/187 71/2/188 
f 71/2/188 72/3/189 69/4/186 
f 65/4/190 68/1/191 70/2/192 
f 70/2/192 69/3/193 65/4/190 
f 68/4/194 67/1/195 71/2/196 
f 71/2/196 70/3/197 68/4/194 
f 67/4/198 66/1/199 72/2/200 
f 72/2/200 71/3/201 67/4/198 
f 66/4/202 65/1/203 69/2/204 
f 69/2/204 72/3/205 66/4/202 
# 0 polygons - 108 triangles

#
# object Line03
#

v  0.1087 2.0138 -2.5213
v  0.2494 1.3621 -3.5048
v  0.4261 1.5339 -2.5603
v  0.5208 1.0955 -3.2218
v  0.3480 0.5621 -4.1490
v  0.6665 -0.0873 -4.1743
v  0.3506 0.6134 -4.1756
v  0.7033 0.6319 -4.5476
v  0.2780 1.3689 -3.7230
v  0.6077 1.6273 -3.9513
v  0.1003 2.2358 -2.4861
v  0.4772 2.2637 -3.0433
v  0.8651 5.4684 -6.3931
v  0.9808 5.1956 -6.6161
v  1.1967 8.0969 -9.2531
v  1.3165 7.8565 -9.5113
v  1.3537 10.1329 -10.7104
v  1.4801 9.9780 -11.0297
v  1.3774 11.5291 -11.0721
v  1.5055 11.4737 -11.4172
v  1.3681 12.5607 -11.1359
v  1.4956 12.5702 -11.4851
v  1.3575 12.9075 -11.1004
v  1.4681 13.4671 -11.3932
v  1.1095 11.8854 -9.0845
v  1.1537 12.1710 -8.8368
v  0.0695 2.5767 -2.2971
v  0.3487 3.0737 -2.1731
v  -0.1311 3.5180 -0.8967
v  0.1413 4.0471 -0.7250
v  -0.1340 3.4595 -0.8664
v  0.1045 3.3279 -0.3517
v  -0.0360 3.0471 -1.5568
v  0.2389 2.7623 -1.2985
v  0.0974 2.1746 -2.4567
v  0.3334 2.1446 -1.9355
v  -0.2441 -1.8484 0.6608
v  -0.0017 -1.8015 1.1224
v  -0.2322 -1.9924 0.5893
v  0.0692 -2.6599 0.6959
v  0.6502 1.5377 -2.5308
v  0.7448 1.0994 -3.1923
v  0.8906 -0.0835 -4.1448
v  0.9274 0.6357 -4.5181
v  0.8318 1.6312 -3.9218
v  0.7013 2.2675 -3.0138
v  1.0410 5.1967 -6.6082
v  1.3767 7.8576 -9.5034
v  1.5403 9.9790 -11.0218
v  1.5657 11.4747 -11.4093
v  1.5558 12.5712 -11.4772
v  1.5283 13.4681 -11.3852
v  1.2139 12.1720 -8.8289
v  0.5728 3.0776 -2.1436
v  0.3654 4.0510 -0.6955
v  0.3286 3.3317 -0.3222
v  0.4630 2.7662 -1.2690
v  0.5574 2.1485 -1.9060
v  0.2224 -1.7976 1.1519
v  0.2933 -2.6560 0.7254
v  0.9303 2.0279 -2.4131
v  1.0710 1.3762 -3.3966
v  1.1696 0.5762 -4.0408
v  1.1722 0.6275 -4.0674
v  1.0997 1.3830 -3.6148
v  0.9219 2.2498 -2.3779
v  1.0859 5.4721 -6.3641
v  1.4174 8.1007 -9.2241
v  1.5744 10.1367 -10.6813
v  1.5981 11.5329 -11.0430
v  1.5888 12.5644 -11.1068
v  1.5782 12.9113 -11.0713
v  1.3302 11.8892 -9.0554
v  0.8912 2.5908 -2.1889
v  0.6906 3.5321 -0.7885
v  0.6876 3.4736 -0.7582
v  0.7856 3.0612 -1.4486
v  0.9191 2.1887 -2.3484
v  0.5775 -1.8343 0.7690
v  0.5894 -1.9783 0.6975
# 80 vertices

vn -0.7984 -0.5482 0.2491
vn -0.8195 -0.4172 0.3928
vn -0.6824 -0.3089 -0.6625
vn -0.6957 0.3188 -0.6438
vn -0.7228 0.5128 -0.4633
vn -0.7287 -0.4507 -0.5156
vn -0.9411 -0.1852 -0.2829
vn -0.7381 -0.4428 -0.5091
vn -0.9452 -0.1764 -0.2749
vn -0.9440 -0.1611 -0.2881
vn -0.9412 -0.1079 -0.3202
vn -0.9389 -0.0506 -0.3403
vn -0.9392 -0.0117 -0.3433
vn -0.9394 0.0063 -0.3429
vn -0.9835 0.1785 -0.0305
vn -0.9911 0.1302 0.0267
vn -0.8455 0.3627 0.3919
vn -0.9897 0.1378 0.0381
vn -0.8371 0.3696 0.4034
vn -0.7242 0.5198 -0.4531
vn -0.8406 0.2828 0.4619
vn -0.7948 -0.5640 0.2241
vn -0.8116 -0.4749 0.3402
vn -0.8341 0.3804 0.3995
vn -0.8313 -0.3008 0.4673
vn -0.6890 -0.4070 -0.5997
vn -0.0575 -0.8360 0.5457
vn -0.0906 -0.6313 0.7702
vn 0.1236 -0.4621 -0.8782
vn 0.1029 0.5184 -0.8489
vn 0.0606 0.8215 -0.5670
vn 0.0954 -0.7761 -0.6234
vn 0.0980 -0.7576 -0.6453
vn 0.1087 -0.6647 -0.7391
vn 0.1254 -0.4246 -0.8967
vn 0.1316 -0.1561 -0.9789
vn 0.1302 0.0226 -0.9912
vn 0.1281 0.1050 -0.9862
vn -0.0738 0.8931 0.4438
vn -0.1151 0.5936 0.7965
vn 0.0583 0.8324 -0.5511
vn -0.1236 0.4621 0.8782
vn -0.0520 -0.8606 0.5067
vn -0.0782 -0.7215 0.6880
vn -0.1134 0.6146 0.7807
vn -0.1091 -0.4495 0.8866
vn 0.1133 -0.6153 -0.7801
vn 0.7247 -0.5221 0.4497
vn 0.7035 -0.3911 0.5934
vn 0.8406 -0.2828 -0.4619
vn 0.8274 0.3450 -0.4432
vn 0.8003 0.5390 -0.2627
vn 0.8316 -0.4664 -0.3015
vn 0.9891 -0.1406 -0.0427
vn 0.8550 -0.4365 -0.2800
vn 0.9909 -0.1299 -0.0353
vn 0.9912 -0.1279 -0.0332
vn 0.9951 -0.0746 -0.0652
vn 0.9962 -0.0174 -0.0855
vn 0.9959 0.0215 -0.0884
vn 0.9953 0.0395 -0.0881
vn 0.9512 0.2117 0.2243
vn 0.9432 0.1511 0.2959
vn 0.7045 0.3996 0.5866
vn 0.9398 0.1572 0.3034
vn 0.6997 0.4027 0.5901
vn 0.7989 0.5459 -0.2525
vn 0.6824 0.3089 0.6625
vn 0.7283 -0.5379 0.4247
vn 0.7114 -0.4488 0.5407
vn 0.7115 -0.4488 0.5407
vn 0.6890 0.4065 0.6001
vn 0.6917 -0.2747 0.6679
vn 0.8341 -0.3809 -0.3991
vn 0.9913 0.0170 0.1306
vn 0.9929 0.0252 0.1160
vn 0.9924 0.0265 0.1205
vn 0.9935 0.0215 0.1120
vn 0.9941 0.0232 0.1061
vn 0.9978 -0.0602 0.0275
vn 0.9489 -0.2786 -0.1480
vn -0.9913 -0.0170 -0.1306
vn -0.9894 -0.0088 -0.1451
vn -0.9900 -0.0075 -0.1406
vn -0.9887 -0.0125 -0.1491
vn -0.9879 -0.0108 -0.1549
vn -0.9683 -0.0939 -0.2314
vn -0.8683 -0.3098 -0.3874
# 88 vertex normals

vt 0.0000 0.0000 0.0000
# 1 texture coords

o Line03
g Line03
usemtl pirate_skeleton__2___Default
s 1
f 73/5/206 74/5/206 75/5/206 
f 74/5/206 76/5/206 75/5/206 
f 74/5/207 77/5/207 76/5/207 
f 77/5/207 78/5/207 76/5/207 
f 77/5/208 79/5/208 78/5/208 
f 79/5/208 80/5/208 78/5/208 
f 79/5/209 81/5/209 80/5/209 
f 81/5/209 82/5/209 80/5/209 
f 81/5/210 83/5/210 82/5/210 
f 83/5/210 84/5/210 82/5/210 
f 83/5/211 85/5/212 84/5/213 
f 85/5/212 86/5/214 84/5/213 
f 85/5/212 87/5/215 86/5/214 
f 87/5/215 88/5/215 86/5/214 
f 87/5/215 89/5/216 88/5/215 
f 89/5/216 90/5/216 88/5/215 
f 89/5/216 91/5/217 90/5/216 
f 91/5/217 92/5/217 90/5/216 
f 91/5/217 93/5/218 92/5/217 
f 93/5/218 94/5/218 92/5/217 
f 93/5/218 95/5/219 94/5/218 
f 95/5/219 96/5/219 94/5/218 
f 95/5/220 97/5/220 96/5/220 
f 97/5/220 98/5/220 96/5/220 
f 97/5/221 99/5/222 98/5/223 
f 99/5/222 100/5/224 98/5/223 
f 99/5/225 101/5/225 100/5/225 
f 101/5/225 102/5/225 100/5/225 
f 101/5/226 103/5/226 102/5/226 
f 103/5/226 104/5/226 102/5/226 
f 103/5/227 105/5/227 104/5/227 
f 105/5/227 106/5/227 104/5/227 
f 105/5/228 107/5/228 106/5/228 
f 107/5/228 108/5/228 106/5/228 
f 107/5/229 109/5/229 108/5/229 
f 109/5/229 110/5/229 108/5/229 
f 109/5/230 111/5/230 110/5/230 
f 111/5/230 112/5/230 110/5/230 
f 111/5/231 73/5/231 112/5/231 
f 73/5/231 75/5/231 112/5/231 
f 75/5/232 76/5/232 113/5/232 
f 76/5/232 114/5/232 113/5/232 
f 76/5/233 78/5/233 114/5/233 
f 78/5/233 115/5/233 114/5/233 
f 78/5/234 80/5/234 115/5/234 
f 80/5/234 116/5/234 115/5/234 
f 80/5/235 82/5/235 116/5/235 
f 82/5/235 117/5/235 116/5/235 
f 82/5/236 84/5/236 117/5/236 
f 84/5/236 118/5/236 117/5/236 
f 84/5/237 86/5/238 118/5/237 
f 86/5/238 119/5/238 118/5/237 
f 86/5/238 88/5/239 119/5/238 
f 88/5/239 120/5/239 119/5/238 
f 88/5/239 90/5/240 120/5/239 
f 90/5/240 121/5/240 120/5/239 
f 90/5/240 92/5/241 121/5/240 
f 92/5/241 122/5/241 121/5/240 
f 92/5/241 94/5/242 122/5/241 
f 94/5/242 123/5/242 122/5/241 
f 94/5/242 96/5/243 123/5/242 
f 96/5/243 124/5/243 123/5/242 
f 96/5/244 98/5/244 124/5/244 
f 98/5/244 125/5/244 124/5/244 
f 98/5/245 100/5/245 125/5/245 
f 100/5/245 126/5/245 125/5/245 
f 100/5/246 102/5/246 126/5/246 
f 102/5/246 127/5/246 126/5/246 
f 102/5/247 104/5/247 127/5/247 
f 104/5/247 128/5/247 127/5/247 
f 104/5/248 106/5/248 128/5/248 
f 106/5/248 129/5/248 128/5/248 
f 106/5/249 108/5/249 129/5/249 
f 108/5/249 130/5/249 129/5/249 
f 108/5/250 110/5/250 130/5/250 
f 110/5/250 131/5/250 130/5/250 
f 110/5/251 112/5/251 131/5/251 
f 112/5/251 132/5/251 131/5/251 
f 112/5/252 75/5/252 132/5/252 
f 75/5/252 113/5/252 132/5/252 
f 113/5/253 114/5/253 133/5/253 
f 114/5/253 134/5/253 133/5/253 
f 114/5/254 115/5/254 134/5/254 
f 115/5/254 135/5/254 134/5/254 
f 115/5/255 116/5/255 135/5/255 
f 116/5/255 136/5/255 135/5/255 
f 116/5/256 117/5/256 136/5/256 
f 117/5/256 137/5/256 136/5/256 
f 117/5/257 118/5/257 137/5/257 
f 118/5/257 138/5/257 137/5/257 
f 118/5/258 119/5/259 138/5/260 
f 119/5/259 139/5/261 138/5/260 
f 119/5/259 120/5/262 139/5/261 
f 120/5/262 140/5/262 139/5/261 
f 120/5/262 121/5/263 140/5/262 
f 121/5/263 141/5/263 140/5/262 
f 121/5/263 122/5/264 141/5/263 
f 122/5/264 142/5/264 141/5/263 
f 122/5/264 123/5/265 142/5/264 
f 123/5/265 143/5/265 142/5/264 
f 123/5/265 124/5/266 143/5/265 
f 124/5/266 144/5/266 143/5/265 
f 124/5/267 125/5/267 144/5/267 
f 125/5/267 145/5/267 144/5/267 
f 125/5/268 126/5/269 145/5/270 
f 126/5/269 146/5/271 145/5/270 
f 126/5/272 127/5/272 146/5/272 
f 127/5/272 147/5/272 146/5/272 
f 127/5/273 128/5/273 147/5/273 
f 128/5/273 148/5/273 147/5/273 
f 128/5/274 129/5/274 148/5/274 
f 129/5/274 149/5/274 148/5/274 
f 129/5/275 130/5/275 149/5/276 
f 130/5/275 150/5/275 149/5/276 
f 130/5/277 131/5/277 150/5/277 
f 131/5/277 151/5/277 150/5/277 
f 131/5/278 132/5/278 151/5/278 
f 132/5/278 152/5/278 151/5/278 
f 132/5/279 113/5/279 152/5/279 
f 113/5/279 133/5/279 152/5/279 
f 151/5/280 152/5/280 133/5/280 
f 150/5/280 151/5/280 133/5/280 
f 134/5/280 135/5/280 136/5/280 
f 134/5/280 136/5/280 137/5/280 
f 134/5/280 137/5/280 138/5/281 
f 133/5/280 134/5/280 138/5/281 
f 150/5/280 133/5/280 138/5/281 
f 143/5/280 144/5/280 145/5/282 
f 142/5/280 143/5/280 145/5/282 
f 149/5/280 150/5/280 138/5/281 
f 141/5/283 142/5/280 145/5/282 
f 141/5/283 145/5/282 146/5/284 
f 140/5/285 141/5/283 146/5/284 
f 139/5/286 140/5/285 146/5/284 
f 138/5/281 139/5/286 146/5/284 
f 149/5/280 138/5/281 146/5/284 
f 149/5/280 146/5/284 147/5/280 
f 148/5/280 149/5/280 147/5/280 
f 109/5/287 73/5/287 111/5/287 
f 107/5/287 73/5/287 109/5/287 
f 74/5/287 79/5/287 77/5/287 
f 74/5/287 81/5/287 79/5/287 
f 74/5/287 83/5/288 81/5/287 
f 73/5/287 83/5/288 74/5/287 
f 107/5/287 83/5/288 73/5/287 
f 93/5/287 97/5/289 95/5/287 
f 91/5/287 97/5/289 93/5/287 
f 105/5/287 83/5/288 107/5/287 
f 89/5/290 97/5/289 91/5/287 
f 89/5/290 99/5/291 97/5/289 
f 87/5/292 99/5/291 89/5/290 
f 85/5/293 99/5/291 87/5/292 
f 83/5/288 99/5/291 85/5/293 
f 105/5/287 99/5/291 83/5/288 
f 105/5/287 101/5/287 99/5/291 
f 103/5/287 101/5/287 105/5/287 
# 0 polygons - 156 triangles

