# 3ds Max Wavefront OBJ Exporter v0.94b - (c)2007 guruware
# File Created: 02.04.2009 10:57:08

mtllib terrain.mtl

#
# object Plane01
#

v  -1.00000 0.00000 1.00000
v  1.00000 0.00000 1.00000
v  1.00000 0.00000 -1.00000
v  -1.00000 0.00000 -1.0000
# 4 vertices

vn 0.00000 1.00000 0.00000
# 1 vertex normals

vt 0.00000 0.0000 0.00000
vt 1.00000 0.00000 0.00000
vt 1.00000 1.00000 0.00000
vt 0.00000 1.00000 0.00000
# 4 texture coords

g Plane01
usemtl 01___Default
s 1
f 1/1/1 2/2/1 3/3/1 
f 3/3/1 4/4/1 1/1/1 
# 2 faces

